  <svg
    data-theme-code="light"
    aria-hidden="true"
    viewBox="0 0 22 22"
    width="15"
    height="15"
  >
    <path
      d="M 4,11 A 1,1 0 0 0 3,10 H 2 a 1,1 0 0 0 0,2 h 1 a 1,1 0 0 0 1,-1 z m 0.64,5 -0.71,0.71 a 1,1 0 0 0 0,1.41 1,1 0 0 0 1.41,0 L 6.05,17.41 A 1,1 0 0 0 4.64,16 Z M 11,4 A 1,1 0 0 0 12,3 V 2 a 1,1 0 0 0 -2,0 v 1 a 1,1 0 0 0 1,1 z m 5.66,2.34 a 1,1 0 0 0 0.7,-0.29 L 18.07,5.34 A 1,1 0 1 0 16.66,3.93 L 16,4.64 a 1,1 0 0 0 0,1.41 1,1 0 0 0 0.66,0.29 z m -12,-0.29 a 1,1 0 0 0 1.41,0 1,1 0 0 0 0,-1.41 L 5.36,3.93 A 1.0041165,1.0041165 0 1 0 3.93,5.34 Z M 20,10 h -1 a 1,1 0 0 0 0,2 h 1 a 1,1 0 0 0 0,-2 z m -2.64,6 A 1,1 0 0 0 16,17.36 l 0.71,0.71 a 1,1 0 0 0 1.41,0 1,1 0 0 0 0,-1.41 z M 11,5.5 A 5.5,5.5 0 1 0 16.5,11 5.51,5.51 0 0 0 11,5.5 Z m 0,9 a 3.5,3.5 0 1 1 0,-7 3.5,3.5 0 0 1 0,7 z m 0,3.5 a 1,1 0 0 0 -1,1 v 1 a 1,1 0 0 0 2,0 v -1 a 1,1 0 0 0 -1,-1 z"
    ></path>
  </svg>
